<svg xmlns="http://www.w3.org/2000/svg" viewBox="0 0 640 420" role="img" aria-labelledby="title desc">
  <title id="title">Pickleball court illustration</title>
  <desc id="desc">A stylized pickleball court with paddles and a ball.</desc>
  <rect width="640" height="420" fill="#f4efe4"/>
  <rect x="84" y="48" width="472" height="324" rx="26" fill="#2f6b58"/>
  <rect x="118" y="82" width="404" height="256" rx="10" fill="none" stroke="#fffdf9" stroke-width="8"/>
  <line x1="320" y1="82" x2="320" y2="338" stroke="#fffdf9" stroke-width="6"/>
  <line x1="118" y1="210" x2="522" y2="210" stroke="#fffdf9" stroke-width="6"/>
  <line x1="220" y1="82" x2="220" y2="338" stroke="#fffdf9" stroke-width="4"/>
  <line x1="420" y1="82" x2="420" y2="338" stroke="#fffdf9" stroke-width="4"/>
  <rect x="114" y="199" width="412" height="22" rx="11" fill="#17332b" opacity="0.4"/>
  <g transform="rotate(-18 178 312)">
    <rect x="132" y="214" width="96" height="128" rx="24" fill="#d9653f"/>
    <rect x="165" y="332" width="30" height="58" rx="14" fill="#7a5136"/>
    <circle cx="180" cy="254" r="5" fill="#f7e5db"/>
    <circle cx="196" cy="270" r="5" fill="#f7e5db"/>
    <circle cx="163" cy="286" r="5" fill="#f7e5db"/>
    <circle cx="197" cy="302" r="5" fill="#f7e5db"/>
  </g>
  <g transform="rotate(18 462 116)">
    <rect x="414" y="54" width="96" height="128" rx="24" fill="#f2c96b"/>
    <rect x="447" y="172" width="30" height="58" rx="14" fill="#7a5136"/>
    <circle cx="448" cy="92" r="5" fill="#fff9e7"/>
    <circle cx="475" cy="108" r="5" fill="#fff9e7"/>
    <circle cx="445" cy="126" r="5" fill="#fff9e7"/>
    <circle cx="477" cy="144" r="5" fill="#fff9e7"/>
  </g>
  <circle cx="470" cy="128" r="26" fill="#f2c96b"/>
  <circle cx="462" cy="120" r="4" fill="#fffdf9"/>
  <circle cx="481" cy="120" r="4" fill="#fffdf9"/>
  <circle cx="470" cy="134" r="4" fill="#fffdf9"/>
  <circle cx="458" cy="143" r="4" fill="#fffdf9"/>
  <circle cx="482" cy="143" r="4" fill="#fffdf9"/>
</svg>
